<?xml version="1.0" encoding="utf-8"?>
<!-- Generator: Adobe Illustrator 19.2.0, SVG Export Plug-In . SVG Version: 6.00 Build 0)  -->
<svg version="1.1" xmlns="http://www.w3.org/2000/svg" xmlns:xlink="http://www.w3.org/1999/xlink" x="0px" y="0px"
	 viewBox="0 0 24 22" style="enable-background:new 0 0 24 22;" xml:space="preserve">
<g id="Layer_1">
	<g>
		<circle cx="18.5" cy="19.5" r="2.5"/>
		<circle cx="8.5" cy="19.5" r="2.5"/>
	</g>
</g>
<g id="Layer_2">
	<g>
		<path d="M6.4,13"/>
		<path d="M4,0.4C3.9,0.2,3.7,0,3.5,0h-3C0.2,0,0,0.2,0,0.5S0.2,1,0.5,1h2.6l2.5,12.2C5.9,14.8,7.3,16,9,16h11.5
			c0.3,0,0.5-0.2,0.5-0.5S20.8,15,20.5,15H9c-0.8,0-1.6-0.4-2.1-1"/>
		<path d="M4.5,3"/>
		<path d="M6.9,14l14.7-2c0.2,0,0.4-0.2,0.4-0.4l2-8c0-0.1,0-0.3-0.1-0.4C23.8,3.1,23.7,3,23.5,3L21,11L6.5,13"/>
	</g>
</g>
</svg>
