<?xml version="1.0" encoding="utf-8"?>
<!-- Generator: Adobe Illustrator 19.2.0, SVG Export Plug-In . SVG Version: 6.00 Build 0)  -->
<svg version="1.1" id="Layer_1" xmlns="http://www.w3.org/2000/svg" xmlns:xlink="http://www.w3.org/1999/xlink" x="0px" y="0px"
	 viewBox="0 0 83 69" style="enable-background:new 0 0 83 69;" xml:space="preserve">
<g>
	<path d="M83,36.9c0-13.2-12.4-24-27.7-24c-0.3,0-0.6,0-1,0c1.8,3.4,2.9,7.1,2.9,11.1c0,13-11,23.8-25.3,25.6
		c4.9,6.8,13.6,11.3,23.4,11.3c1.9,0,3.9-0.2,5.8-0.5L78.2,69l-5.8-13.2C79.1,51.3,83,44.2,83,36.9z"/>
	<path d="M55.4,24c0-3.9-1.1-7.7-3.1-10.9C48.3,6.4,40.8,1.5,32,0.3C30.7,0.1,29.4,0,28,0c-0.1,0-0.2,0-0.3,0C12.4,0,0,10.8,0,24
		c0,7.4,4,14.4,10.6,18.9L4.9,56.1l16.7-8.4l0.4-0.2c1.9,0.4,3.9,0.5,5.8,0.5c1,0,2.1-0.1,3.1-0.2c3.6-0.3,6.9-1.3,10-2.7
		C49.5,41.1,55.4,33.1,55.4,24z M29.8,46c-0.7,0-1.4,0.1-2.1,0.1c-1.9,0-3.9-0.2-5.8-0.6h-0.3L19,46.8L8.7,52l4-9l0.4-0.8l-0.7-0.4
		c-1.2-0.7-2.2-1.6-3.2-2.4C4.6,35.3,2,29.9,2,24.1c0-6.7,3.5-12.7,9.1-16.8C15.6,4,21.4,2,27.8,2c8.6,0,16.3,3.7,21,9.3
		c0.6,0.7,1.1,1.4,1.6,2.2c2,3.2,3.2,6.8,3.2,10.7c0,4-1.2,7.7-3.4,10.9C46,41.1,38.5,45.4,29.8,46z"/>
	<circle cx="17.5" cy="24.3" r="3.2"/>
	<circle cx="38.9" cy="24.3" r="3.2"/>
	<path d="M31.4,24.3c0-1.8-1.4-3.2-3.2-3.2S25,22.5,25,24.3s1.4,3.2,3.2,3.2c0.1,0,0.2,0,0.3,0h0.1c0.1,0,0.1,0,0.2,0h0.1H29
		c0.1,0,0.1,0,0.2-0.1h0.1c0.1,0,0.1,0,0.2-0.1h0.1c0.1,0,0.1-0.1,0.2-0.1c0,0,0,0,0.1,0s0.1-0.1,0.2-0.1l0,0
		c0.7-0.5,1.2-1.3,1.3-2.2l0,0C31.4,24.6,31.4,24.4,31.4,24.3z"/>
</g>
</svg>
