<?xml version="1.0" encoding="utf-8"?>
<!-- Generator: Adobe Illustrator 19.2.0, SVG Export Plug-In . SVG Version: 6.00 Build 0)  -->
<svg version="1.1" id="Layer_1" xmlns="http://www.w3.org/2000/svg" xmlns:xlink="http://www.w3.org/1999/xlink" x="0px" y="0px"
	 viewBox="0 0 24 30" style="enable-background:new 0 0 24 30;" xml:space="preserve">
<g>
	<g>
		<circle cx="18.1" cy="21.5" r="2.5"/>
		<circle cx="8.1" cy="21.5" r="2.5"/>
	</g>
	<g>
		<path d="M20.1,18H8.6c-1.7,0-3.1-1.2-3.4-2.8L2.7,3H0.1c-0.3,0-0.5-0.2-0.5-0.5S-0.2,2,0.1,2h3c0.2,0,0.4,0.2,0.5,0.4L6.1,15
			c0.2,1.2,1.3,2,2.5,2h11.5c0.3,0,0.5,0.2,0.5,0.5S20.4,18,20.1,18z"/>
	</g>
	<g>
		<path d="M21.2,12.9c-0.2-0.1-0.4-0.1-0.5-0.2L18.4,11c-0.2-0.1-0.4-0.1-0.6,0l-2.3,1.7c-0.5,0.4-1.2,0.4-1.8,0
			c-0.5-0.4-0.8-1-0.6-1.7L14,8.2c0.1-0.2,0-0.4-0.2-0.6l-2.4-1.8c-0.2-0.1-0.4-0.4-0.5-0.6C10.9,5.1,10.7,5,10.5,5H4.1
			C3.9,5,3.8,5,3.7,5.2S3.6,5.4,3.6,5.6l2,10c0,0.2,0.3,0.4,0.5,0.4c0,0,0,0,0.1,0l15-2c0.2,0,0.4-0.3,0.4-0.5
			C21.7,13.3,21.5,13,21.2,12.9z"/>
		<path d="M24.4,4.5c-0.1-0.2-0.3-0.3-0.5-0.3h-4.1l-1.3-3.9c-0.1-0.4-0.8-0.4-1,0l-1.3,3.9h-4.1c-0.2,0-0.4,0.1-0.5,0.3
			c-0.1,0.2,0,0.4,0.2,0.6l3.3,2.4l-1.2,3.8c-0.1,0.2,0,0.4,0.2,0.6c0.2,0.1,0.4,0.1,0.6,0l3.2-2.3l3.2,2.3c0.1,0.1,0.2,0.1,0.3,0.1
			c0.1,0,0.2,0,0.3-0.1c0.2-0.1,0.3-0.3,0.2-0.6l-1.2-3.8l3.3-2.4C24.4,5,24.4,4.8,24.4,4.5z"/>
	</g>
</g>
</svg>
