<?xml version="1.0" encoding="utf-8"?>
<!-- Generator: Adobe Illustrator 19.2.0, SVG Export Plug-In . SVG Version: 6.00 Build 0)  -->
<svg version="1.1" id="Layer_1" xmlns="http://www.w3.org/2000/svg" xmlns:xlink="http://www.w3.org/1999/xlink" x="0px" y="0px"
	 viewBox="0 0 24 30" style="enable-background:new 0 0 24 30;" xml:space="preserve">
<g>
	<g>
		<path d="M20.5,18H9c-1.7,0-3.1-1.2-3.4-2.8L3.1,3H0.5C0.2,3,0,2.8,0,2.5S0.2,2,0.5,2h3C3.7,2,3.9,2.2,4,2.4L6.5,15
			c0.2,1.2,1.3,2,2.5,2h11.5c0.3,0,0.5,0.2,0.5,0.5S20.8,18,20.5,18z"/>
	</g>
	<circle cx="18.5" cy="21.5" r="2.5"/>
	<circle cx="8.5" cy="21.5" r="2.5"/>
	<path d="M21.6,11.2c-0.9,0.5-2,0.8-3.1,0.8C14.9,12,12,9.1,12,5.5C12,5.2,11.8,5,11.5,5h-7C4.4,5,4.2,5.1,4.1,5.2S4,5.5,4,5.6l2,10
		c0,0.2,0.3,0.4,0.5,0.4c0,0,0,0,0.1,0l15-2c0.2,0,0.4-0.2,0.4-0.4l0.3-1.9c0-0.2,0-0.4-0.2-0.5C22,11.1,21.8,11.1,21.6,11.2z"/>
	<path d="M18.5,0c-3,0-5.5,2.5-5.5,5.5s2.5,5.5,5.5,5.5S24,8.5,24,5.5S21.5,0,18.5,0z M20.9,7.1c0.2,0.2,0.2,0.5,0,0.7
		C20.8,8,20.6,8,20.5,8s-0.3,0-0.4-0.1l-1.6-1.6l-1.6,1.6C16.8,8,16.6,8,16.5,8s-0.3,0-0.4-0.1c-0.2-0.2-0.2-0.5,0-0.7l1.6-1.6
		l-1.6-1.6c-0.2-0.2-0.2-0.5,0-0.7s0.5-0.2,0.7,0l1.6,1.6l1.6-1.6c0.2-0.2,0.5-0.2,0.7,0s0.2,0.5,0,0.7l-1.6,1.6L20.9,7.1z"/>
</g>
</svg>
