<?xml version="1.0" encoding="utf-8"?>
<!-- Generator: Adobe Illustrator 19.2.0, SVG Export Plug-In . SVG Version: 6.00 Build 0)  -->
<svg version="1.1" id="Layer_1" xmlns:sketch="http://www.bohemiancoding.com/sketch/ns"
	 xmlns="http://www.w3.org/2000/svg" xmlns:xlink="http://www.w3.org/1999/xlink" x="0px" y="0px" viewBox="0 0 90 58"
	 style="enable-background:new 0 0 90 58;" xml:space="preserve">
<title>2-quotation marks</title>
<desc>Created with Sketch.</desc>
<g sketch:type="MSPage">
	<g transform="translate(5.000000, 21.000000)" sketch:type="MSLayerGroup">
		<path sketch:type="MSShapeGroup" d="M-5-16.9v27.5c0,2.3,1.8,4.1,4.1,4.1h14V37h9.2L34,14v-30.9c0-2.3-1.8-4.1-4.1-4.1H-0.9
			C-3.2-21-5-19.2-5-16.9"/>
		<path sketch:type="MSShapeGroup" d="M46-16.9v27.5c0,2.3,1.8,4.1,4.1,4.1h14V37h9.2L85,14v-30.9c0-2.3-1.8-4.1-4.1-4.1H50.1
			C47.8-21,46-19.2,46-16.9"/>
	</g>
</g>
</svg>
