<?xml version="1.0" encoding="utf-8"?>
<!-- Generator: Adobe Illustrator 19.2.0, SVG Export Plug-In . SVG Version: 6.00 Build 0)  -->
<svg version="1.1" id="Layer_1" xmlns="http://www.w3.org/2000/svg" xmlns:xlink="http://www.w3.org/1999/xlink" x="0px" y="0px"
	 viewBox="0 0 77.1 90" style="enable-background:new 0 0 77.1 90;" xml:space="preserve">
<path d="M17.7,80.4c-4.6,0-8-5.2-8-9.7V12.9H7.9c-4.4,0-7.9,3.5-7.9,7.8v61.5C0,86.5,3.6,90,7.9,90h48.4c4.4,0,7.9-3.5,7.9-7.8v-1.8
	H17.7z"/>
<path d="M54.4,23.4V0H20.8c-4.4,0-7.9,3.5-7.9,7.8v61.5c0,4.3,3.6,7.8,7.9,7.8h48.4c4.4,0,7.9-3.5,7.9-7.8V23.4L54.4,23.4z
	 M58.4,2.8v16.5l16.1,0L58.4,2.8z"/>
</svg>
