<?xml version="1.0" encoding="utf-8"?>
<!-- Generator: Adobe Illustrator 19.2.0, SVG Export Plug-In . SVG Version: 6.00 Build 0)  -->
<svg version="1.1" id="Layer_1" xmlns:sketch="http://www.bohemiancoding.com/sketch/ns"
	 xmlns="http://www.w3.org/2000/svg" xmlns:xlink="http://www.w3.org/1999/xlink" x="0px" y="0px" viewBox="0 0 15.5 16"
	 style="enable-background:new 0 0 15.5 16;" xml:space="preserve">
<title>search</title>
<description>Created with Sketch (http://www.bohemiancoding.com/sketch)</description>
<path d="M15.2,13.6L11,9.4c0.6-1,1-2.1,1-3.4c0-3.3-2.7-6-6-6S0,2.7,0,6s2.7,6,6,6c1,0,1.9-0.2,2.7-0.7l4.3,4.3c0,0,0.7,0.7,1.4,0
	l0.7-0.7C15.9,14.3,15.2,13.6,15.2,13.6z M6,10c-2.2,0-4-1.8-4-4s1.8-4,4-4s4,1.8,4,4S8.2,10,6,10z"/>
</svg>
