<?xml version="1.0" encoding="utf-8"?>
<!-- Generator: Adobe Illustrator 19.2.0, SVG Export Plug-In . SVG Version: 6.00 Build 0)  -->
<svg version="1.1" id="Layer_1" xmlns="http://www.w3.org/2000/svg" xmlns:xlink="http://www.w3.org/1999/xlink" x="0px" y="0px"
	 viewBox="0 0 24 22" style="enable-background:new 0 0 24 22;" xml:space="preserve">
<g>
	<g>
		<circle cx="18.5" cy="19.5" r="2.5"/>
		<circle cx="8.5" cy="19.5" r="2.5"/>
	</g>
	<g>
		<path d="M20.5,16H9c-1.7,0-3.1-1.2-3.4-2.8L3.1,1H0.5C0.2,1,0,0.8,0,0.5S0.2,0,0.5,0h3C3.7,0,3.9,0.2,4,0.4L6.5,13
			c0.2,1.2,1.3,2,2.5,2h11.5c0.3,0,0.5,0.2,0.5,0.5S20.8,16,20.5,16z"/>
	</g>
	<path d="M23.9,3.2C23.8,3.1,23.7,3,23.5,3h-19C4.2,3,4,3.2,4,3.5S4.2,4,4.5,4h0.1l1.8,9C6.1,13.1,6,13.3,6,13.6
		C6,13.8,6.3,14,6.5,14c0,0,0,0,0.1,0l15-2c0.2,0,0.4-0.2,0.4-0.4l2-8C24,3.5,24,3.3,23.9,3.2z"/>
</g>
</svg>
