<?xml version="1.0" encoding="utf-8"?>
<!-- Generator: Adobe Illustrator 19.2.0, SVG Export Plug-In . SVG Version: 6.00 Build 0)  -->
<svg version="1.1" id="Layer_1" xmlns="http://www.w3.org/2000/svg" xmlns:xlink="http://www.w3.org/1999/xlink" x="0px" y="0px"
	 viewBox="0 0 100 100" style="enable-background:new 0 0 100 100;" xml:space="preserve">
<polygon points="64.3,22.5 50,36.9 35.7,22.5 23.4,34.8 37.7,49.2 23.4,63.5 35.7,75.8 50,61.4 64.3,75.8 76.6,63.5 62.3,49.2 
	76.6,34.8 "/>
<path d="M85.4,14.6C75.6,4.9,62.8,0,50,0C37.2,0,24.4,4.9,14.6,14.6c-19.5,19.5-19.5,51.2,0,70.7C24.4,95.1,37.2,100,50,100
	c12.8,0,25.6-4.9,35.3-14.6C104.9,65.8,104.9,34.2,85.4,14.6z M79.8,79.8c-8,8-18.6,12.4-29.8,12.4c-11.3,0-21.9-4.4-29.8-12.4
	c-8-8-12.4-18.6-12.4-29.8c0-11.3,4.4-21.9,12.4-29.8c8-8,18.6-12.4,29.8-12.4c11.3,0,21.9,4.4,29.8,12.4l0,0
	c8,8,12.4,18.6,12.4,29.8C92.2,61.3,87.8,71.9,79.8,79.8z"/>
</svg>
